<?xml version="1.0" encoding="UTF-8" standalone="no"?>
<!DOCTYPE svg PUBLIC "-//W3C//DTD SVG 1.1//EN" "http://www.w3.org/Graphics/SVG/1.1/DTD/svg11.dtd">
<svg version="1.1" xmlns="http://www.w3.org/2000/svg" xmlns:xlink="http://www.w3.org/1999/xlink" preserveAspectRatio="xMidYMid meet" viewBox="0 0 900 900" width="900" height="900"><defs><path d="M486.47 6.48L504.42 8.3L522.14 10.83L539.64 14.05L556.89 17.94L573.88 22.5L590.59 27.7L607.02 33.54L623.14 39.99L638.95 47.05L654.43 54.7L669.56 62.93L684.33 71.71L698.73 81.04L712.74 90.91L726.35 101.29L739.53 112.17L752.29 123.55L764.6 135.4L776.45 147.71L787.83 160.47L798.71 173.65L809.09 187.26L818.96 201.27L828.29 215.67L837.07 230.44L845.3 245.57L852.95 261.05L860.01 276.86L866.46 292.98L872.3 309.41L877.5 326.12L882.06 343.11L885.95 360.36L889.17 377.86L891.7 395.58L893.52 413.53L894.63 431.67L895 450L894.63 468.33L893.52 486.47L891.7 504.42L889.17 522.14L885.95 539.64L882.06 556.89L877.5 573.88L872.3 590.59L866.46 607.02L860.01 623.14L852.95 638.95L845.3 654.43L837.07 669.56L828.29 684.33L818.96 698.73L809.09 712.74L798.71 726.35L787.83 739.53L776.45 752.29L764.6 764.6L752.29 776.45L739.53 787.83L726.35 798.71L712.74 809.09L698.73 818.96L684.33 828.29L669.56 837.07L654.43 845.3L638.95 852.95L623.14 860.01L607.02 866.46L590.59 872.3L573.88 877.5L556.89 882.06L539.64 885.95L522.14 889.17L504.42 891.7L486.47 893.52L468.33 894.63L450 895L431.67 894.63L413.53 893.52L395.58 891.7L377.86 889.17L360.36 885.95L343.11 882.06L326.12 877.5L309.41 872.3L292.98 866.46L276.86 860.01L261.05 852.95L245.57 845.3L230.44 837.07L215.67 828.29L201.27 818.96L187.26 809.09L173.65 798.71L160.47 787.83L147.71 776.45L135.4 764.6L123.55 752.29L112.17 739.53L101.29 726.35L90.91 712.74L81.04 698.73L71.71 684.33L62.93 669.56L54.7 654.43L47.05 638.95L39.99 623.14L33.54 607.02L27.7 590.59L22.5 573.88L17.94 556.89L14.05 539.64L10.83 522.14L8.3 504.42L6.48 486.47L5.37 468.33L5 450L5.37 431.67L6.48 413.53L8.3 395.58L10.83 377.86L14.05 360.36L17.94 343.11L22.5 326.12L27.7 309.41L33.54 292.98L39.99 276.86L47.05 261.05L54.7 245.57L62.93 230.44L71.71 215.67L81.04 201.27L90.91 187.26L101.29 173.65L112.17 160.47L123.55 147.71L135.4 135.4L147.71 123.55L160.47 112.17L173.65 101.29L187.26 90.91L201.27 81.04L215.67 71.71L230.44 62.93L245.57 54.7L261.05 47.05L276.86 39.99L292.98 33.54L309.41 27.7L326.12 22.5L343.11 17.94L360.36 14.05L377.86 10.83L395.58 8.3L413.53 6.48L431.67 5.37L450 5L468.33 5.37L486.47 6.48ZM415.15 26.19L398 27.93L381.06 30.35L364.35 33.42L347.87 37.14L331.63 41.5L315.66 46.47L299.96 52.05L284.55 58.22L269.44 64.96L254.66 72.27L240.2 80.13L226.08 88.52L212.32 97.44L198.94 106.87L185.94 116.79L173.33 127.19L161.14 138.06L149.38 149.38L138.06 161.14L127.19 173.33L116.79 185.94L106.87 198.94L97.44 212.32L88.52 226.08L80.13 240.2L72.27 254.66L64.96 269.44L58.22 284.55L52.05 299.96L46.47 315.66L41.5 331.63L37.14 347.87L33.42 364.35L30.35 381.06L27.93 398L26.19 415.15L25.13 432.48L24.78 450L25.13 467.52L26.19 484.85L27.93 502L30.35 518.94L33.42 535.65L37.14 552.13L41.5 568.37L46.47 584.34L52.05 600.04L58.22 615.45L64.96 630.56L72.27 645.34L80.13 659.8L88.52 673.92L97.44 687.68L106.87 701.06L116.79 714.06L127.19 726.67L138.06 738.86L149.38 750.62L161.14 761.94L173.33 772.81L185.94 783.21L198.94 793.13L212.32 802.56L226.08 811.48L240.2 819.87L254.66 827.73L269.44 835.04L284.55 841.78L299.96 847.95L315.66 853.53L331.63 858.5L347.87 862.86L364.35 866.58L381.06 869.65L398 872.07L415.15 873.81L432.48 874.87L450 875.22L467.52 874.87L484.85 873.81L502 872.07L518.94 869.65L535.65 866.58L552.13 862.86L568.37 858.5L584.34 853.53L600.04 847.95L615.45 841.78L630.56 835.04L645.34 827.73L659.8 819.87L673.92 811.48L687.68 802.56L701.06 793.13L714.06 783.21L726.67 772.81L738.86 761.94L750.62 750.62L761.94 738.86L772.81 726.67L783.21 714.06L793.13 701.06L802.56 687.68L811.48 673.92L819.87 659.8L827.73 645.34L835.04 630.56L841.78 615.45L847.95 600.04L853.53 584.34L858.5 568.37L862.86 552.13L866.58 535.65L869.65 518.94L872.07 502L873.81 484.85L874.87 467.52L875.22 450L874.87 432.48L873.81 415.15L872.07 398L869.65 381.06L866.58 364.35L862.86 347.87L858.5 331.63L853.53 315.66L847.95 299.96L841.78 284.55L835.04 269.44L827.73 254.66L819.87 240.2L811.48 226.08L802.56 212.32L793.13 198.94L783.21 185.94L772.81 173.33L761.94 161.14L750.62 149.38L738.86 138.06L726.67 127.19L714.06 116.79L701.06 106.87L687.68 97.44L673.92 88.52L659.8 80.13L645.34 72.27L630.56 64.96L615.45 58.22L600.04 52.05L584.34 46.47L568.37 41.5L552.13 37.14L535.65 33.42L518.94 30.35L502 27.93L484.85 26.19L467.52 25.13L450 24.78L432.48 25.13L415.15 26.19ZM483.23 45.9L499.58 47.56L515.73 49.87L531.67 52.8L547.38 56.35L562.86 60.5L578.09 65.24L593.06 70.56L607.75 76.44L622.16 82.87L636.26 89.84L650.05 97.33L663.5 105.34L676.62 113.84L689.39 122.83L701.78 132.29L713.8 142.2L725.42 152.57L736.64 163.36L747.43 174.58L757.8 186.2L767.71 198.22L777.17 210.61L786.16 223.38L794.66 236.5L802.67 249.95L810.16 263.74L817.13 277.84L823.56 292.25L829.44 306.94L834.76 321.91L839.5 337.14L843.65 352.62L847.2 368.33L850.13 384.27L852.44 400.42L854.1 416.77L855.11 433.3L855.44 450L855.11 466.7L854.1 483.23L852.44 499.58L850.13 515.73L847.2 531.67L843.65 547.38L839.5 562.86L834.76 578.09L829.44 593.06L823.56 607.75L817.13 622.16L810.16 636.26L802.67 650.05L794.66 663.5L786.16 676.62L777.17 689.39L767.71 701.78L757.8 713.8L747.43 725.42L736.64 736.64L725.42 747.43L713.8 757.8L701.78 767.71L689.39 777.17L676.62 786.16L663.5 794.66L650.05 802.67L636.26 810.16L622.16 817.13L607.75 823.56L593.06 829.44L578.09 834.76L562.86 839.5L547.38 843.65L531.67 847.2L515.73 850.13L499.58 852.44L483.23 854.1L466.7 855.11L450 855.44L433.3 855.11L416.77 854.1L400.42 852.44L384.27 850.13L368.33 847.2L352.62 843.65L337.14 839.5L321.91 834.76L306.94 829.44L292.25 823.56L277.84 817.13L263.74 810.16L249.95 802.67L236.5 794.66L223.38 786.16L210.61 777.17L198.22 767.71L186.2 757.8L174.58 747.43L163.36 736.64L152.57 725.42L142.2 713.8L132.29 701.78L122.83 689.39L113.84 676.62L105.34 663.5L97.33 650.05L89.84 636.26L82.87 622.16L76.44 607.75L70.56 593.06L65.24 578.09L60.5 562.86L56.35 547.38L52.8 531.67L49.87 515.73L47.56 499.58L45.9 483.23L44.89 466.7L44.56 450L44.89 433.3L45.9 416.77L47.56 400.42L49.87 384.27L52.8 368.33L56.35 352.62L60.5 337.14L65.24 321.91L70.56 306.94L76.44 292.25L82.87 277.84L89.84 263.74L97.33 249.95L105.34 236.5L113.84 223.38L122.83 210.61L132.29 198.22L142.2 186.2L152.57 174.58L163.36 163.36L174.58 152.57L186.2 142.2L198.22 132.29L210.61 122.83L223.38 113.84L236.5 105.34L249.95 97.33L263.74 89.84L277.84 82.87L292.25 76.44L306.94 70.56L321.91 65.24L337.14 60.5L352.62 56.35L368.33 52.8L384.27 49.87L400.42 47.56L416.77 45.9L433.3 44.89L450 44.56L466.7 44.89L483.23 45.9Z" id="fCV4nPvi4"></path></defs><g><g><g><use xlink:href="#fCV4nPvi4" opacity="1" fill="#9f9ec8" fill-opacity="1"></use></g></g></g></svg>